<svg xmlns="http://www.w3.org/2000/svg" width="0" height="0"><defs><symbol id="user" viewBox="0 0 24 24"><g id="Iconly/Light/2-User" fill="none" fill-rule="evenodd" stroke="currentColor" stroke-linecap="round" stroke-linejoin="round" stroke-width="1.5"><g id="2-User" stroke="currentColor" stroke-width="1.5" transform="translate(2 2.5)"><path id="Stroke-1" d="M7.591 12.707c3.69 0 6.843.559 6.843 2.792 0 2.233-3.132 2.808-6.842 2.808-3.69 0-6.842-.554-6.842-2.788s3.13-2.812 6.841-2.812Z"/><path id="Stroke-3" d="M7.591 9.52a4.386 4.386 0 1 1 4.386-4.385A4.37 4.37 0 0 1 7.622 9.52h-.03Z"/><path id="Stroke-5" d="M14.483 8.382A3.301 3.301 0 0 0 17.32 5.12a3.3 3.3 0 0 0-2.762-3.256"/><path id="Stroke-7" d="M16.595 12.232c1.551.231 2.634.775 2.634 1.895 0 .771-.51 1.271-1.334 1.584"/></g></g></symbol><symbol id="activity" viewBox="0 0 24 24"><g id="Iconly/Light/Activity" fill="none" fill-rule="evenodd" stroke="currentColor" stroke-linecap="round" stroke-linejoin="round" stroke-width="1.5"><g id="Activity" stroke="currentColor" stroke-width="1.5" transform="translate(2 1.5)"><path id="Path_33966" d="m5.245 13.281 2.993-3.89 3.414 2.682 2.93-3.78"/><circle id="Ellipse_741" cx="17.995" cy="2.7" r="1.922"/><path id="Path" d="M12.924 1.62H5.657C2.645 1.62.778 3.753.778 6.764v8.083c0 3.011 1.83 5.135 4.879 5.135h8.604c3.011 0 4.879-2.124 4.879-5.135v-7.04"/></g></g></symbol><symbol id="arrow - left circle" viewBox="0 0 24 24"><g id="Iconly/Light/Arrow---Left-Circle" fill="none" fill-rule="evenodd" stroke="currentColor" stroke-linecap="round" stroke-linejoin="round" stroke-width="1.5"><g id="Arrow---Left-Circle" stroke="currentColor" stroke-width="1.5" transform="rotate(90 10 12)"><path id="Stroke-1" d="M.75 10a9.25 9.25 0 1 0 18.5 0 9.25 9.25 0 0 0-18.5 0Z"/><path id="Stroke-3" d="M6.529 8.558 10 12.044l3.471-3.486"/></g></g></symbol><symbol id="bag" viewBox="0 0 24 24"><g id="Iconly/Light/Bag-2" fill="none" fill-rule="evenodd" stroke="currentColor" stroke-linecap="round" stroke-linejoin="round" stroke-width="1.5"><g id="Bag-2" stroke="currentColor" stroke-width="1.5" transform="translate(3 2.5)"><path id="Stroke-1" d="M12.773 6.805V3.773A3.773 3.773 0 0 0 9 0a3.773 3.773 0 0 0-3.79 3.756v3.049"/><path id="Stroke-3" d="M13.742 18.5H4.258A4.256 4.256 0 0 1 0 14.245V8.73a4.256 4.256 0 0 1 4.258-4.255h9.484A4.256 4.256 0 0 1 18 8.73v5.516a4.256 4.256 0 0 1-4.258 4.255Z"/></g></g></symbol><symbol id="bag" viewBox="0 0 24 24"><g id="Iconly/Light/Bag" fill="none" fill-rule="evenodd" stroke="currentColor" stroke-linecap="round" stroke-linejoin="round" stroke-width="1.5"><g id="Bag" stroke="currentColor" stroke-width="1.5" transform="translate(2.5 1.5)"><path id="Path_33955" d="M14.014 20H5.666C2.6 20 .247 18.892.916 14.435l.777-6.041c.412-2.225 1.831-3.076 3.076-3.076h10.178c1.264 0 2.6.915 3.076 3.076l.778 6.04C19.368 18.39 17.08 20 14.014 20Z"/><path id="Path_33956" d="M14.151 5.098a4.32 4.32 0 0 0-4.32-4.32h0a4.32 4.32 0 0 0-4.339 4.32h0"/><path id="Line_192" d="M12.796 9.602h-.045"/><path id="Line_193" d="M6.966 9.602H6.92"/></g></g></symbol><symbol id="calendar" viewBox="0 0 24 24"><g id="Iconly/Light/Calendar" fill="none" fill-rule="evenodd" stroke="currentColor" stroke-linecap="round" stroke-linejoin="round" stroke-width="1.5"><g id="Calendar" stroke="currentColor" stroke-width="1.5" transform="translate(3 2)"><path id="Line_200" d="M.093 7.404h17.824"/><path id="Line_201" d="M13.442 11.31h.009"/><path id="Line_202" d="M9.005 11.31h.009"/><path id="Line_203" d="M4.558 11.31h.009"/><path id="Line_204" d="M13.442 15.196h.009"/><path id="Line_205" d="M9.005 15.196h.009"/><path id="Line_206" d="M4.558 15.196h.009"/><path id="Line_207" d="M13.044 0v3.291"/><path id="Line_208" d="M4.966 0v3.291"/><path id="Path" d="M13.238 1.58H4.771C1.834 1.58 0 3.214 0 6.221v9.05C0 18.326 1.834 20 4.771 20h8.458C16.175 20 18 18.355 18 15.348V6.222c.01-3.007-1.816-4.643-4.762-4.643Z"/></g></g></symbol></defs></svg>